# xmcd
#
# Track frame offsets:
#	150
#	16243
#	35218
#	52441
#	73544
#	92832
#	108797
#	122578
#	136345
#	154126
#	167358
#	183240
#	216580
#
# Disc length: 3227 seconds
#
# Revision: 1
# Processed by: cddbd v1.5.1PL0 Copyright (c) Steve Scherf et al.
# Submitted via: audiograbber 1.83.01
#
DISCID=b70c990d
DTITLE=Mark Reeves - Sure Is A Pretty Name
DYEAR=2004
DGENRE=Folk-Rock
TTITLE0=IF I HAD YOU
TTITLE1=SURE IS A PRETTY NAME
TTITLE2=VDUB
TTITLE3=NO MATTER
TTITLE4=THE WAY
TTITLE5=BETTER DAYS
TTITLE6=BACK DIRT ROAD
TTITLE7=PUT ON SOMETHING SEXY
TTITLE8=THESE ARE THE SOUNDS
TTITLE9=PRICILLA
TTITLE10=QUARTERBACK
TTITLE11=THANK YOU
TTITLE12=VDUB VIDEO
EXTD=
EXTT0=
EXTT1=
EXTT2=
EXTT3=
EXTT4=
EXTT5=
EXTT6=
EXTT7=
EXTT8=
EXTT9=
EXTT10=
EXTT11=
EXTT12=
PLAYORDER=
